<svg width="68" height="68" viewBox="0 0 68 68" fill="none" xmlns="http://www.w3.org/2000/svg">
<g clip-path="url(#clip0_777_449)">
<path d="M39.2697 11.5597H31.4497L49.8097 42.4997H31.4497L26.8597 49.6397H62.7297L39.2697 11.5597Z" fill="#999999"/>
<path d="M32.8095 35.8698L29.4095 30.2598L11.8995 59.6698H57.7995L62.0495 51.1698H23.9695L32.8095 35.8698Z" fill="#999999"/>
<path d="M11.05 57.6297L7.14001 49.6397L29.58 11.5597L46.75 40.6297H38.93L29.58 26.3497L11.05 57.6297Z" fill="#999999"/>
<path d="M38.2498 10.2H30.4298L48.7898 41.14H30.4298L25.8398 48.28H61.7098L38.2498 10.2Z" fill="#D9D9D9"/>
<path d="M31.7898 34.51L28.3898 28.9L10.8798 58.31H56.7798L61.0298 49.81H22.9498L31.7898 34.51Z" fill="black"/>
<path d="M10.0302 56.27L6.12024 48.28L28.5602 10.2L45.7302 39.27H37.9102L28.5602 24.99L10.0302 56.27Z" fill="#FF7474"/>
</g>
<defs>
<clipPath id="clip0_777_449">
<rect width="68" height="68" rx="6.8" fill="white"/>
</clipPath>
</defs>
</svg>
