<svg width="298" height="52" viewBox="0 0 298 52" fill="none" xmlns="http://www.w3.org/2000/svg">
<path d="M28.625 7H22.875L36.375 29.75H22.875L19.5 35H45.875L28.625 7Z" fill="#999999"/>
<path d="M23.875 24.875L21.375 20.75L8.5 42.375H42.25L45.375 36.125H17.375L23.875 24.875Z" fill="#999999"/>
<path d="M7.875 40.875L5 35L21.5 7L34.125 28.375H28.375L21.5 17.875L7.875 40.875Z" fill="#999999"/>
<path d="M28.125 6.5H22.375L35.875 29.25H22.375L19 34.5H45.375L28.125 6.5Z" fill="#D9D9D9"/>
<path d="M23.375 24.375L20.875 20.25L8 41.875H41.75L44.875 35.625H16.875L23.375 24.375Z" fill="black"/>
<path d="M7.375 40.375L4.5 34.5L21 6.5L33.625 27.875H27.875L21 17.375L7.375 40.375Z" fill="#FF7474"/>
<path d="M84.2617 18.0703H73.0703V41H67.9922V18.0703H56.7812V12.9922H84.2617V18.0703ZM103.578 24.9648H92.1523C91.4622 24.9648 90.9414 25.1406 90.5898 25.4922C90.2383 25.8307 90.0625 26.332 90.0625 26.9961V41H84.9844V26.9961C84.9844 26.1237 85.0951 25.3424 85.3164 24.6523C85.5378 23.9622 85.8307 23.3568 86.1953 22.8359C86.5729 22.3021 87.0026 21.8529 87.4844 21.4883C87.9661 21.1107 88.4674 20.8047 88.9883 20.5703C89.5221 20.3359 90.056 20.1667 90.5898 20.0625C91.1367 19.9453 91.6445 19.8867 92.1133 19.8867H103.578V24.9648ZM127.094 34.0078C127.094 34.7109 126.97 35.4727 126.723 36.293C126.475 37.1003 126.072 37.8555 125.512 38.5586C124.965 39.2487 124.242 39.8281 123.344 40.2969C122.458 40.7656 121.378 41 120.102 41H110.941C110.238 41 109.477 40.8763 108.656 40.6289C107.849 40.3815 107.094 39.9844 106.391 39.4375C105.701 38.8776 105.121 38.1549 104.652 37.2695C104.184 36.3711 103.949 35.2839 103.949 34.0078C103.949 33.3047 104.073 32.543 104.32 31.7227C104.568 30.9023 104.965 30.1471 105.512 29.457C106.072 28.7539 106.794 28.168 107.68 27.6992C108.578 27.2305 109.665 26.9961 110.941 26.9961H120.102V31.8398H110.941C110.251 31.8398 109.717 32.0547 109.34 32.4844C108.962 32.901 108.773 33.4219 108.773 34.0469C108.773 34.7109 108.988 35.2318 109.418 35.6094C109.861 35.974 110.382 36.1562 110.98 36.1562H120.102C120.792 36.1562 121.326 35.9479 121.703 35.5312C122.081 35.1146 122.27 34.5938 122.27 33.9688V26.8789C122.27 26.2148 122.061 25.6875 121.645 25.2969C121.241 24.9062 120.727 24.7109 120.102 24.7109H108.949V19.8867H120.102C120.805 19.8867 121.56 20.0104 122.367 20.2578C123.188 20.5052 123.943 20.9089 124.633 21.4688C125.336 22.0156 125.922 22.7383 126.391 23.6367C126.859 24.5221 127.094 25.6029 127.094 26.8789V34.0078ZM154.828 41H149.75V29.2812C149.75 28.6172 149.633 28.0247 149.398 27.5039C149.177 26.9701 148.871 26.5143 148.48 26.1367C148.09 25.7591 147.628 25.4727 147.094 25.2773C146.573 25.069 146.007 24.9648 145.395 24.9648H136.508V41H131.43V22.4062C131.43 22.0547 131.495 21.7292 131.625 21.4297C131.755 21.1172 131.938 20.8503 132.172 20.6289C132.406 20.3945 132.68 20.2122 132.992 20.082C133.305 19.9518 133.637 19.8867 133.988 19.8867H145.434C146.072 19.8867 146.742 19.9583 147.445 20.1016C148.161 20.2448 148.865 20.4792 149.555 20.8047C150.258 21.1172 150.922 21.5208 151.547 22.0156C152.185 22.4974 152.745 23.0898 153.227 23.793C153.721 24.4831 154.112 25.2839 154.398 26.1953C154.685 27.1068 154.828 28.1354 154.828 29.2812V41ZM179.691 33.8711C179.691 34.7435 179.581 35.5312 179.359 36.2344C179.138 36.9245 178.845 37.5365 178.48 38.0703C178.116 38.5911 177.693 39.0404 177.211 39.418C176.729 39.7826 176.221 40.082 175.688 40.3164C175.167 40.5508 174.633 40.7266 174.086 40.8438C173.552 40.9479 173.044 41 172.562 41H158.812V35.9219H172.523C173.214 35.9219 173.734 35.7461 174.086 35.3945C174.438 35.043 174.613 34.5352 174.613 33.8711C174.548 32.5169 173.865 31.8398 172.562 31.8398H164.691C163.572 31.8398 162.621 31.6445 161.84 31.2539C161.059 30.8633 160.421 30.375 159.926 29.7891C159.444 29.2031 159.092 28.5716 158.871 27.8945C158.663 27.2174 158.559 26.5859 158.559 26C158.559 24.8672 158.76 23.9167 159.164 23.1484C159.568 22.3672 160.076 21.7357 160.688 21.2539C161.299 20.7721 161.964 20.4271 162.68 20.2188C163.396 19.9974 164.066 19.8867 164.691 19.8867H177.172V24.9648H164.73C164.47 24.9648 164.262 24.9974 164.105 25.0625C163.962 25.1146 163.852 25.1927 163.773 25.2969C163.708 25.388 163.669 25.4922 163.656 25.6094C163.643 25.7135 163.637 25.8177 163.637 25.9219C163.65 26.1302 163.689 26.293 163.754 26.4102C163.819 26.5273 163.897 26.612 163.988 26.6641C164.092 26.7161 164.203 26.7487 164.32 26.7617C164.451 26.7617 164.574 26.7617 164.691 26.7617H172.562C173.865 26.7617 174.971 26.9961 175.883 27.4648C176.794 27.9336 177.53 28.526 178.09 29.2422C178.65 29.9453 179.053 30.7135 179.301 31.5469C179.561 32.3802 179.691 33.1549 179.691 33.8711ZM206.859 29.5547H190.824V24.4375H206.859V29.5547ZM209.145 41H190.824C190.121 41 189.353 40.8763 188.52 40.6289C187.686 40.3815 186.911 39.9779 186.195 39.418C185.492 38.8451 184.9 38.1094 184.418 37.2109C183.949 36.2995 183.715 35.1862 183.715 33.8711V15.5508C183.715 15.1992 183.78 14.8672 183.91 14.5547C184.04 14.2422 184.216 13.9688 184.438 13.7344C184.672 13.5 184.945 13.3177 185.258 13.1875C185.57 13.0573 185.909 12.9922 186.273 12.9922H209.145V18.0703H188.793V33.8711C188.793 34.5352 188.969 35.043 189.32 35.3945C189.672 35.7461 190.186 35.9219 190.863 35.9219H209.145V41ZM236.234 33.8711C236.234 34.7435 236.124 35.5312 235.902 36.2344C235.681 36.9245 235.388 37.5365 235.023 38.0703C234.659 38.5911 234.236 39.0404 233.754 39.418C233.272 39.7826 232.764 40.082 232.23 40.3164C231.71 40.5508 231.176 40.7266 230.629 40.8438C230.095 40.9479 229.587 41 229.105 41H219.945C219.242 41 218.474 40.8763 217.641 40.6289C216.807 40.3815 216.033 39.9779 215.316 39.418C214.613 38.8451 214.021 38.1094 213.539 37.2109C213.07 36.2995 212.836 35.1862 212.836 33.8711V26.9961C212.836 25.694 213.07 24.5938 213.539 23.6953C214.021 22.7839 214.613 22.0482 215.316 21.4883C216.033 20.9154 216.807 20.5052 217.641 20.2578C218.474 20.0104 219.242 19.8867 219.945 19.8867H229.105C230.408 19.8867 231.514 20.1211 232.426 20.5898C233.337 21.0586 234.073 21.651 234.633 22.3672C235.193 23.0703 235.596 23.8385 235.844 24.6719C236.104 25.5052 236.234 26.2799 236.234 26.9961V33.8711ZM231.156 27.0352C231.156 26.332 230.98 25.8112 230.629 25.4727C230.277 25.1341 229.77 24.9648 229.105 24.9648H219.984C219.307 24.9648 218.793 25.1406 218.441 25.4922C218.09 25.8307 217.914 26.332 217.914 26.9961V33.8711C217.914 34.5352 218.09 35.043 218.441 35.3945C218.793 35.7461 219.307 35.9219 219.984 35.9219H229.105C229.796 35.9219 230.31 35.7461 230.648 35.3945C230.987 35.043 231.156 34.5352 231.156 33.8711V27.0352ZM263.969 41H258.891V29.2812C258.891 28.6172 258.773 28.0247 258.539 27.5039C258.318 26.9701 258.012 26.5143 257.621 26.1367C257.23 25.7591 256.768 25.4727 256.234 25.2773C255.714 25.069 255.147 24.9648 254.535 24.9648H245.648V41H240.57V22.4062C240.57 22.0547 240.635 21.7292 240.766 21.4297C240.896 21.1172 241.078 20.8503 241.312 20.6289C241.547 20.3945 241.82 20.2122 242.133 20.082C242.445 19.9518 242.777 19.8867 243.129 19.8867H254.574C255.212 19.8867 255.883 19.9583 256.586 20.1016C257.302 20.2448 258.005 20.4792 258.695 20.8047C259.398 21.1172 260.062 21.5208 260.688 22.0156C261.326 22.4974 261.885 23.0898 262.367 23.793C262.862 24.4831 263.253 25.2839 263.539 26.1953C263.826 27.1068 263.969 28.1354 263.969 29.2812V41ZM281.781 22.9922L290.336 12.9922H297.27L285.219 27.0352L297.191 41H290.297L281.781 31.0781L273.305 41H266.391L278.344 27.0352L266.352 12.9922H273.227L281.781 22.9922Z" fill="#999999"/>
<path d="M83.2617 17.0703H72.0703V40H66.9922V17.0703H55.7812V11.9922H83.2617V17.0703ZM102.578 23.9648H91.1523C90.4622 23.9648 89.9414 24.1406 89.5898 24.4922C89.2383 24.8307 89.0625 25.332 89.0625 25.9961V40H83.9844V25.9961C83.9844 25.1237 84.0951 24.3424 84.3164 23.6523C84.5378 22.9622 84.8307 22.3568 85.1953 21.8359C85.5729 21.3021 86.0026 20.8529 86.4844 20.4883C86.9661 20.1107 87.4674 19.8047 87.9883 19.5703C88.5221 19.3359 89.056 19.1667 89.5898 19.0625C90.1367 18.9453 90.6445 18.8867 91.1133 18.8867H102.578V23.9648ZM126.094 33.0078C126.094 33.7109 125.97 34.4727 125.723 35.293C125.475 36.1003 125.072 36.8555 124.512 37.5586C123.965 38.2487 123.242 38.8281 122.344 39.2969C121.458 39.7656 120.378 40 119.102 40H109.941C109.238 40 108.477 39.8763 107.656 39.6289C106.849 39.3815 106.094 38.9844 105.391 38.4375C104.701 37.8776 104.121 37.1549 103.652 36.2695C103.184 35.3711 102.949 34.2839 102.949 33.0078C102.949 32.3047 103.073 31.543 103.32 30.7227C103.568 29.9023 103.965 29.1471 104.512 28.457C105.072 27.7539 105.794 27.168 106.68 26.6992C107.578 26.2305 108.665 25.9961 109.941 25.9961H119.102V30.8398H109.941C109.251 30.8398 108.717 31.0547 108.34 31.4844C107.962 31.901 107.773 32.4219 107.773 33.0469C107.773 33.7109 107.988 34.2318 108.418 34.6094C108.861 34.974 109.382 35.1562 109.98 35.1562H119.102C119.792 35.1562 120.326 34.9479 120.703 34.5312C121.081 34.1146 121.27 33.5938 121.27 32.9688V25.8789C121.27 25.2148 121.061 24.6875 120.645 24.2969C120.241 23.9062 119.727 23.7109 119.102 23.7109H107.949V18.8867H119.102C119.805 18.8867 120.56 19.0104 121.367 19.2578C122.188 19.5052 122.943 19.9089 123.633 20.4688C124.336 21.0156 124.922 21.7383 125.391 22.6367C125.859 23.5221 126.094 24.6029 126.094 25.8789V33.0078ZM153.828 40H148.75V28.2812C148.75 27.6172 148.633 27.0247 148.398 26.5039C148.177 25.9701 147.871 25.5143 147.48 25.1367C147.09 24.7591 146.628 24.4727 146.094 24.2773C145.573 24.069 145.007 23.9648 144.395 23.9648H135.508V40H130.43V21.4062C130.43 21.0547 130.495 20.7292 130.625 20.4297C130.755 20.1172 130.938 19.8503 131.172 19.6289C131.406 19.3945 131.68 19.2122 131.992 19.082C132.305 18.9518 132.637 18.8867 132.988 18.8867H144.434C145.072 18.8867 145.742 18.9583 146.445 19.1016C147.161 19.2448 147.865 19.4792 148.555 19.8047C149.258 20.1172 149.922 20.5208 150.547 21.0156C151.185 21.4974 151.745 22.0898 152.227 22.793C152.721 23.4831 153.112 24.2839 153.398 25.1953C153.685 26.1068 153.828 27.1354 153.828 28.2812V40ZM178.691 32.8711C178.691 33.7435 178.581 34.5312 178.359 35.2344C178.138 35.9245 177.845 36.5365 177.48 37.0703C177.116 37.5911 176.693 38.0404 176.211 38.418C175.729 38.7826 175.221 39.082 174.688 39.3164C174.167 39.5508 173.633 39.7266 173.086 39.8438C172.552 39.9479 172.044 40 171.562 40H157.812V34.9219H171.523C172.214 34.9219 172.734 34.7461 173.086 34.3945C173.438 34.043 173.613 33.5352 173.613 32.8711C173.548 31.5169 172.865 30.8398 171.562 30.8398H163.691C162.572 30.8398 161.621 30.6445 160.84 30.2539C160.059 29.8633 159.421 29.375 158.926 28.7891C158.444 28.2031 158.092 27.5716 157.871 26.8945C157.663 26.2174 157.559 25.5859 157.559 25C157.559 23.8672 157.76 22.9167 158.164 22.1484C158.568 21.3672 159.076 20.7357 159.688 20.2539C160.299 19.7721 160.964 19.4271 161.68 19.2188C162.396 18.9974 163.066 18.8867 163.691 18.8867H176.172V23.9648H163.73C163.47 23.9648 163.262 23.9974 163.105 24.0625C162.962 24.1146 162.852 24.1927 162.773 24.2969C162.708 24.388 162.669 24.4922 162.656 24.6094C162.643 24.7135 162.637 24.8177 162.637 24.9219C162.65 25.1302 162.689 25.293 162.754 25.4102C162.819 25.5273 162.897 25.612 162.988 25.6641C163.092 25.7161 163.203 25.7487 163.32 25.7617C163.451 25.7617 163.574 25.7617 163.691 25.7617H171.562C172.865 25.7617 173.971 25.9961 174.883 26.4648C175.794 26.9336 176.53 27.526 177.09 28.2422C177.65 28.9453 178.053 29.7135 178.301 30.5469C178.561 31.3802 178.691 32.1549 178.691 32.8711ZM205.859 28.5547H189.824V23.4375H205.859V28.5547ZM208.145 40H189.824C189.121 40 188.353 39.8763 187.52 39.6289C186.686 39.3815 185.911 38.9779 185.195 38.418C184.492 37.8451 183.9 37.1094 183.418 36.2109C182.949 35.2995 182.715 34.1862 182.715 32.8711V14.5508C182.715 14.1992 182.78 13.8672 182.91 13.5547C183.04 13.2422 183.216 12.9688 183.438 12.7344C183.672 12.5 183.945 12.3177 184.258 12.1875C184.57 12.0573 184.909 11.9922 185.273 11.9922H208.145V17.0703H187.793V32.8711C187.793 33.5352 187.969 34.043 188.32 34.3945C188.672 34.7461 189.186 34.9219 189.863 34.9219H208.145V40ZM235.234 32.8711C235.234 33.7435 235.124 34.5312 234.902 35.2344C234.681 35.9245 234.388 36.5365 234.023 37.0703C233.659 37.5911 233.236 38.0404 232.754 38.418C232.272 38.7826 231.764 39.082 231.23 39.3164C230.71 39.5508 230.176 39.7266 229.629 39.8438C229.095 39.9479 228.587 40 228.105 40H218.945C218.242 40 217.474 39.8763 216.641 39.6289C215.807 39.3815 215.033 38.9779 214.316 38.418C213.613 37.8451 213.021 37.1094 212.539 36.2109C212.07 35.2995 211.836 34.1862 211.836 32.8711V25.9961C211.836 24.694 212.07 23.5938 212.539 22.6953C213.021 21.7839 213.613 21.0482 214.316 20.4883C215.033 19.9154 215.807 19.5052 216.641 19.2578C217.474 19.0104 218.242 18.8867 218.945 18.8867H228.105C229.408 18.8867 230.514 19.1211 231.426 19.5898C232.337 20.0586 233.073 20.651 233.633 21.3672C234.193 22.0703 234.596 22.8385 234.844 23.6719C235.104 24.5052 235.234 25.2799 235.234 25.9961V32.8711ZM230.156 26.0352C230.156 25.332 229.98 24.8112 229.629 24.4727C229.277 24.1341 228.77 23.9648 228.105 23.9648H218.984C218.307 23.9648 217.793 24.1406 217.441 24.4922C217.09 24.8307 216.914 25.332 216.914 25.9961V32.8711C216.914 33.5352 217.09 34.043 217.441 34.3945C217.793 34.7461 218.307 34.9219 218.984 34.9219H228.105C228.796 34.9219 229.31 34.7461 229.648 34.3945C229.987 34.043 230.156 33.5352 230.156 32.8711V26.0352ZM262.969 40H257.891V28.2812C257.891 27.6172 257.773 27.0247 257.539 26.5039C257.318 25.9701 257.012 25.5143 256.621 25.1367C256.23 24.7591 255.768 24.4727 255.234 24.2773C254.714 24.069 254.147 23.9648 253.535 23.9648H244.648V40H239.57V21.4062C239.57 21.0547 239.635 20.7292 239.766 20.4297C239.896 20.1172 240.078 19.8503 240.312 19.6289C240.547 19.3945 240.82 19.2122 241.133 19.082C241.445 18.9518 241.777 18.8867 242.129 18.8867H253.574C254.212 18.8867 254.883 18.9583 255.586 19.1016C256.302 19.2448 257.005 19.4792 257.695 19.8047C258.398 20.1172 259.062 20.5208 259.688 21.0156C260.326 21.4974 260.885 22.0898 261.367 22.793C261.862 23.4831 262.253 24.2839 262.539 25.1953C262.826 26.1068 262.969 27.1354 262.969 28.2812V40ZM280.781 21.9922L289.336 11.9922H296.27L284.219 26.0352L296.191 40H289.297L280.781 30.0781L272.305 40H265.391L277.344 26.0352L265.352 11.9922H272.227L280.781 21.9922Z" fill="white"/>
</svg>
