<svg width="40" height="40" viewBox="0 0 40 40" fill="none" xmlns="http://www.w3.org/2000/svg">
<path d="M31.0788 38.3952C28.9013 40.506 26.5239 40.1727 24.2353 39.1728C21.8134 38.1507 19.5914 38.1063 17.0362 39.1728C13.8366 40.5504 12.1479 40.1505 10.237 38.3952C-0.606038 27.2188 0.993761 10.1987 13.3033 9.57657C16.3029 9.7321 18.3916 11.2208 20.1469 11.3541C22.7688 10.8209 25.2796 9.28772 28.0792 9.48769C31.4344 9.75432 33.9674 11.0875 35.6338 13.4872C28.7014 17.6422 30.3456 26.7744 36.7004 29.3296C35.4339 32.6625 33.7896 35.9732 31.0566 38.4174L31.0788 38.3952ZM19.9247 9.44325C19.5914 4.48832 23.6131 0.39995 28.2348 0C28.8791 5.73261 23.0354 9.99874 19.9247 9.44325Z" fill="black"/>
</svg>
