<svg width="40" height="40" viewBox="0 0 40 40" fill="none" xmlns="http://www.w3.org/2000/svg">
<g clip-path="url(#clip0_466_4500)">
<path d="M19.9998 0C22.6262 0 25.2269 0.517315 27.6534 1.52241C30.0799 2.5275 32.2847 4.00069 34.1419 5.85786C35.9991 7.71504 37.4723 9.91982 38.4773 12.3463C39.4824 14.7728 39.9998 17.3736 39.9998 20C39.9998 25.3043 37.8926 30.3914 34.1419 34.1421C30.3912 37.8929 25.3041 40 19.9998 40C10.7998 40 3.09976 33.84 0.719756 25.46L8.37976 28.62C8.64327 29.9006 9.34007 31.0513 10.3528 31.8783C11.3655 32.7052 12.6323 33.1579 13.9398 33.16C17.0598 33.16 19.5998 30.62 19.5998 27.5V27.24L26.3998 22.38H26.5598C30.7198 22.38 34.0998 19 34.0998 14.84C34.0998 10.68 30.7198 7.3 26.5598 7.3C22.3998 7.3 18.9998 10.68 18.9998 14.84V14.94L14.2598 21.86L13.9398 21.84C12.7598 21.84 11.6598 22.2 10.7598 22.82L-0.000244141 18.4C0.859756 8.1 9.45976 0 19.9998 0ZM12.5598 30.34C14.1598 31 15.9998 30.26 16.6598 28.66C17.3198 27.06 16.5598 25.24 14.9998 24.58L12.4398 23.52C13.4198 23.16 14.5198 23.14 15.5598 23.58C16.6198 24 17.4398 24.82 17.8598 25.88C18.2998 26.92 18.2998 28.08 17.8598 29.12C16.9998 31.28 14.4598 32.32 12.2998 31.42C11.2998 31 10.5398 30.24 10.1198 29.34L12.5598 30.34ZM31.5998 14.84C31.5998 17.62 29.3398 19.88 26.5598 19.88C25.2265 19.8747 23.9497 19.3414 23.0089 18.3968C22.068 17.4522 21.5397 16.1732 21.5398 14.84C21.5371 14.18 21.6652 13.5261 21.9165 12.9158C22.1678 12.3056 22.5375 11.7511 23.0042 11.2844C23.4709 10.8177 24.0253 10.4481 24.6356 10.1967C25.2458 9.9454 25.8998 9.81735 26.5598 9.82C27.893 9.81999 29.1719 10.3482 30.1165 11.2891C31.0611 12.23 31.5945 13.5068 31.5998 14.84ZM22.7998 14.84C22.7998 16.92 24.4798 18.62 26.5798 18.62C28.6598 18.62 30.3398 16.92 30.3398 14.84C30.3398 12.76 28.6598 11.06 26.5798 11.06C24.4798 11.06 22.7998 12.76 22.7998 14.84Z" fill="black"/>
</g>
<defs>
<clipPath id="clip0_466_4500">
<rect width="40" height="40" fill="white"/>
</clipPath>
</defs>
</svg>
